<?xml version="1.0" standalone="no"?>
<!DOCTYPE svg PUBLIC "-//W3C//DTD SVG 20010904//EN"
 "http://www.w3.org/TR/2001/REC-SVG-20010904/DTD/svg10.dtd">
<svg version="1.0" xmlns="http://www.w3.org/2000/svg"
 width="736.000000pt" height="736.000000pt" viewBox="0 0 736.000000 736.000000"
 preserveAspectRatio="xMidYMid meet">

<g transform="translate(0.000000,736.000000) scale(0.100000,-0.100000)"
fill="#000000" stroke="none">
<path d="M3551 5666 c-6 -8 -20 -47 -31 -87 -10 -41 -35 -108 -54 -150 -38
-83 -58 -153 -49 -176 3 -9 6 -29 7 -46 2 -52 28 -44 59 17 16 31 37 58 49 62
27 8 122 -4 141 -19 21 -17 40 -78 28 -90 -14 -14 6 -47 28 -47 10 0 28 9 41
20 18 16 24 31 24 69 1 39 -8 67 -47 142 -26 52 -60 134 -76 183 -20 61 -37
95 -53 106 -35 26 -55 30 -67 16z m41 -186 c2 -14 8 -32 13 -40 11 -17 35 -81
35 -94 0 -10 -87 -2 -98 8 -3 4 1 29 11 55 9 27 17 57 17 68 0 18 10 37 16 30
1 -1 4 -14 6 -27z"/>
<path d="M4050 5648 c-7 -18 -21 -51 -30 -73 -10 -22 -30 -71 -45 -110 -15
-38 -36 -89 -47 -113 -21 -48 -33 -131 -21 -149 18 -26 45 -18 69 22 30 50 44
82 44 101 0 10 15 14 55 16 30 0 60 1 67 2 7 1 25 -35 41 -79 35 -94 29 -85
56 -90 16 -3 25 3 33 23 13 31 12 45 -7 87 -15 36 -22 55 -71 209 -36 110 -42
121 -76 142 -21 14 -38 29 -38 34 0 22 -18 8 -30 -22z m56 -175 c15 -44 11
-53 -23 -53 -18 0 -24 4 -20 14 3 8 9 31 13 51 7 41 13 39 30 -12z"/>
<path d="M3035 5638 c-2 -7 -9 -31 -16 -53 -7 -22 -13 -42 -14 -45 0 -6 -62
-138 -76 -163 -5 -9 -16 -52 -24 -95 -25 -126 0 -171 50 -92 14 22 25 44 25
49 0 24 24 60 47 70 13 6 41 11 61 11 36 0 38 -3 66 -63 16 -34 35 -70 44 -79
8 -10 11 -18 6 -19 -5 0 2 -4 14 -10 19 -7 27 -5 43 13 25 31 24 44 -12 113
-17 33 -44 92 -59 130 -91 229 -100 245 -131 245 -11 0 -21 -6 -24 -12z m55
-216 c15 -38 5 -52 -38 -52 -25 0 -25 8 0 73 12 31 19 28 38 -21z"/>
<path d="M4946 5624 c-9 -8 -16 -25 -16 -36 0 -11 -12 -53 -26 -92 -35 -98
-83 -282 -85 -333 -2 -29 3 -48 15 -62 18 -20 18 -20 41 7 12 15 28 50 34 78
l12 51 121 -3 c137 -3 128 3 164 -99 15 -43 26 -61 41 -63 25 -4 42 17 49 60
5 28 -3 52 -44 129 -27 53 -59 107 -72 122 -26 29 -32 40 -79 128 -33 63 -71
119 -71 105 0 -4 -10 0 -22 8 -28 20 -43 20 -62 0z m98 -219 c9 -14 23 -36 32
-50 l16 -25 -66 0 c-46 0 -66 4 -66 13 0 6 10 44 22 84 l22 71 12 -34 c6 -18
19 -45 28 -59z"/>
<path d="M4539 5610 c-9 -5 -20 -22 -24 -37 -3 -15 -20 -53 -36 -86 -16 -32
-29 -64 -29 -71 0 -6 -21 -47 -46 -90 -67 -115 -70 -165 -9 -172 17 -2 29 13
59 69 21 40 42 76 45 80 4 4 32 5 62 1 l55 -6 23 -87 c13 -47 25 -92 27 -98 6
-21 39 -15 63 11 23 24 23 26 8 73 -42 126 -101 324 -102 341 0 17 -56 82 -70
82 -5 0 -17 -5 -26 -10z m45 -202 c10 -39 7 -48 -19 -48 -28 0 -30 8 -13 45
14 31 24 32 32 3z"/>
<path d="M2220 5553 c-25 -18 -45 -64 -72 -168 -12 -44 -39 -117 -60 -163
l-40 -83 27 -23 c41 -36 72 -24 101 38 13 28 24 58 24 67 0 11 8 17 23 16 12
-1 38 2 59 6 l36 8 28 -71 c22 -58 31 -70 50 -70 47 0 38 102 -21 235 -7 17
-27 68 -45 116 -26 71 -36 87 -60 96 -22 8 -33 8 -50 -4z m69 -234 c1 -11 -9
-18 -29 -21 -17 -3 -32 -3 -34 -1 -3 3 11 68 21 103 6 16 41 -52 42 -81z"/>
<path d="M2580 5510 c0 -24 -23 -113 -30 -120 -10 -8 -50 -139 -50 -162 0 -12
-8 -30 -17 -40 -15 -17 -15 -20 -1 -34 21 -21 44 -8 72 42 18 33 29 41 71 51
57 15 65 10 97 -54 27 -55 42 -67 70 -60 32 8 32 50 2 99 -13 20 -24 40 -24
43 0 13 -133 231 -148 243 -23 18 -42 15 -42 -8z m62 -167 c25 -23 23 -30 -12
-35 -31 -5 -36 4 -24 36 8 20 13 20 36 -1z"/>
<path d="M1717 5493 c-10 -12 -16 -39 -16 -83 0 -77 -24 -212 -51 -293 -23
-66 -26 -117 -7 -117 17 0 32 12 40 33 3 9 13 17 21 17 15 0 20 11 31 70 12
67 12 67 62 66 45 -1 46 -2 74 -56 15 -30 33 -55 39 -54 5 1 21 2 34 3 40 2
41 46 2 106 -18 28 -39 66 -46 85 -8 19 -29 61 -47 92 -18 31 -33 61 -33 67 0
11 -69 81 -80 81 -4 0 -14 -8 -23 -17z m73 -187 c0 -8 3 -21 6 -30 4 -11 1
-16 -10 -16 -11 0 -16 9 -16 30 0 17 5 30 10 30 6 0 10 -6 10 -14z"/>
<path d="M3523 5088 c-19 -25 -143 -295 -143 -312 0 -9 -7 -27 -16 -41 -13
-19 -13 -27 -2 -44 21 -34 50 -25 83 27 32 50 53 59 149 63 45 2 52 -1 78 -31
15 -19 28 -39 28 -46 0 -14 33 -44 48 -44 6 0 17 12 25 28 14 29 17 23 -93
227 -21 39 -50 93 -65 120 -31 60 -70 82 -92 53z m87 -238 c0 -4 -21 -7 -46
-8 -39 0 -44 2 -39 16 4 10 11 29 15 44 15 50 22 50 46 2 13 -26 24 -50 24
-54z"/>
<path d="M3043 5033 c-14 -5 -51 -86 -67 -148 -1 -5 -8 -21 -14 -35 -53 -119
-79 -200 -63 -200 6 0 7 -15 4 -35 -5 -29 -2 -35 11 -35 23 0 36 15 66 74 24
47 27 49 95 67 94 24 93 24 101 -18 4 -21 16 -46 28 -56 19 -17 21 -17 33 0 7
9 12 22 10 28 -2 5 3 15 11 21 13 9 11 20 -12 78 -48 120 -117 232 -154 250
-18 9 -34 16 -35 15 -1 0 -8 -3 -14 -6z m70 -203 c-10 -10 -51 -17 -54 -10 -1
3 5 25 12 48 l13 44 19 -37 c10 -21 15 -41 10 -45z"/>
<path d="M4079 5007 c-9 -7 -29 -70 -49 -152 -18 -77 -41 -156 -50 -175 -23
-49 -26 -106 -5 -113 21 -9 44 20 65 80 l16 48 51 0 c70 1 89 -8 112 -52 11
-21 31 -51 45 -67 20 -24 26 -26 45 -17 24 13 38 55 24 74 -5 6 -23 44 -39 82
-15 39 -41 90 -56 114 -15 25 -28 50 -28 55 0 12 -70 117 -85 128 -14 11 -28
9 -46 -5z m55 -190 c15 -26 26 -52 26 -57 0 -7 -68 -3 -78 6 -2 1 0 28 3 59 8
62 12 62 49 -8z"/>
<path d="M4577 5006 c-28 -22 -113 -281 -96 -292 5 -3 9 -14 9 -25 0 -11 4
-18 9 -14 5 3 13 0 16 -5 9 -14 55 47 55 72 0 22 8 25 79 33 53 5 54 5 92 -37
32 -36 41 -41 56 -32 22 14 18 42 -11 69 -26 25 -116 149 -116 161 0 12 -59
84 -68 84 -4 0 -15 -7 -25 -14z m67 -167 c-6 -11 -44 -12 -44 -1 0 4 3 18 7
31 l6 24 19 -22 c10 -13 15 -27 12 -32z"/>
<path d="M5148 4968 c-7 -7 -25 -19 -39 -26 -14 -8 -46 -41 -70 -74 -24 -33
-56 -74 -70 -92 -32 -38 -42 -67 -33 -100 8 -35 29 -33 67 6 27 27 39 31 72
29 84 -5 110 -18 135 -66 27 -53 43 -56 64 -14 15 29 14 39 -4 118 -10 47 -22
110 -25 140 -3 30 -13 63 -22 73 -19 21 -56 24 -75 6z m11 -180 c1 -25 -1 -26
-36 -21 -21 3 -40 7 -42 9 -2 2 11 23 30 48 l34 44 6 -26 c4 -15 7 -39 8 -54z"/>
<path d="M2547 4953 c-2 -5 -7 -21 -11 -38 -4 -16 -25 -67 -47 -112 -22 -45
-42 -93 -44 -106 -3 -13 -11 -42 -19 -64 -8 -22 -11 -46 -6 -53 4 -7 6 -20 3
-29 -2 -10 3 -24 12 -31 15 -12 19 -11 35 10 10 13 23 41 29 62 10 31 18 39
49 47 70 19 101 12 127 -29 13 -20 30 -44 39 -53 9 -8 20 -27 26 -41 16 -44
60 -29 73 26 5 20 1 34 -16 55 -24 30 -57 79 -57 86 0 3 9 7 21 10 32 8 17 32
-22 35 -32 3 -36 7 -76 94 -24 49 -43 96 -43 102 0 21 -64 45 -73 29z m53
-220 c0 -7 -12 -13 -26 -13 -27 0 -26 -3 -7 65 6 18 8 17 19 -10 7 -16 13 -36
14 -42z"/>
<path d="M5490 4898 c-6 -18 -16 -42 -20 -53 -5 -11 -23 -62 -40 -113 -33 -98
-34 -145 -3 -156 18 -7 43 10 43 29 0 7 6 15 14 18 8 3 17 19 21 35 6 29 8 30
41 20 19 -5 42 -7 52 -4 12 3 29 -10 56 -45 28 -35 46 -49 60 -47 34 5 30 39
-10 83 -38 40 -114 158 -114 175 0 6 -5 20 -12 33 -6 12 -14 29 -18 37 -4 8
-18 16 -32 18 -20 2 -27 -3 -38 -30z m76 -165 c-8 -8 -36 5 -36 17 0 7 6 7 21
0 11 -7 18 -14 15 -17z"/>
<path d="M1987 4774 c-4 -4 -17 -7 -29 -8 -33 -2 -46 -65 -52 -255 -7 -211
-13 -299 -25 -411 -44 -401 -45 -461 -15 -568 13 -45 24 -88 24 -95 0 -7 15
-44 34 -83 37 -79 87 -126 171 -163 56 -25 51 -22 127 -73 75 -50 94 -80 119
-184 18 -75 21 -117 20 -269 -1 -99 -4 -205 -7 -235 -9 -74 -9 -90 0 -275 4
-88 9 -198 11 -245 2 -71 7 -93 30 -134 44 -77 111 -104 192 -75 52 17 67 60
59 165 -13 177 -10 406 6 449 l15 40 63 -2 c34 -1 69 -5 78 -9 10 -4 22 -8 27
-8 6 -1 9 -17 8 -36 -5 -70 -3 -285 3 -305 12 -43 38 -83 65 -99 60 -35 175
-6 197 51 6 15 13 89 16 163 10 222 28 280 107 327 51 30 62 32 184 39 129 6
297 9 407 6 68 -2 72 -10 58 -97 -5 -33 -10 -136 -10 -229 -1 -191 0 -193 79
-228 64 -27 126 -17 152 26 20 32 34 95 44 186 15 158 37 250 64 274 10 9 41
16 81 17 117 4 116 4 129 -45 6 -24 25 -75 42 -112 17 -37 36 -81 41 -98 19
-64 40 -142 43 -161 6 -38 35 -94 57 -109 49 -35 94 -10 128 71 21 50 22 58
10 135 -6 46 -16 101 -22 123 -7 22 -12 54 -14 70 -20 285 -23 368 -14 454 6
53 15 141 21 196 17 166 67 331 114 384 18 20 40 51 49 69 10 19 32 52 49 75
40 52 189 351 216 432 39 119 52 209 48 343 -5 152 -16 185 -90 261 -76 78
-141 104 -264 105 -81 0 -145 -31 -164 -82 -16 -41 35 -109 106 -142 72 -34
96 -65 130 -167 13 -40 16 -72 11 -135 -8 -129 -35 -246 -61 -268 -8 -7 -15
-19 -15 -26 0 -35 -101 -164 -128 -164 -4 0 -32 -25 -62 -56 -79 -81 -99 -87
-191 -64 -41 11 -126 24 -189 30 -63 6 -136 18 -161 26 -43 14 -202 14 -512 1
-71 -3 -81 2 -68 35 14 38 36 201 45 338 2 36 10 108 16 161 13 105 4 255 -26
439 -16 97 -56 115 -142 63 -31 -20 -84 -48 -118 -64 -34 -16 -67 -35 -74 -44
-7 -8 -21 -15 -31 -15 -10 0 -22 -6 -26 -14 -4 -7 -30 -28 -57 -46 -46 -31
-54 -33 -130 -32 -45 1 -103 6 -131 12 -27 6 -81 15 -120 20 -137 16 -271 31
-323 36 -39 4 -60 12 -81 32 -15 15 -43 36 -62 46 -19 11 -39 25 -45 30 -6 6
-35 31 -64 56 -29 25 -77 69 -105 98 -54 54 -58 56 -68 46z m304 -894 c24 -13
49 -61 49 -95 0 -90 -99 -130 -143 -56 -51 87 14 193 94 151z m794 -33 c76
-64 -3 -208 -91 -166 -60 29 -58 122 4 164 45 31 54 31 87 2z m-340 -300 c20
-15 13 -37 -12 -37 -8 0 -26 -9 -39 -19 -28 -22 -47 -19 -88 14 -19 15 -27 29
-23 39 8 21 134 23 162 3z"/>
<path d="M5486 4451 c-3 -4 -19 -11 -36 -14 -21 -5 -30 -12 -30 -26 0 -11 -4
-23 -10 -26 -5 -3 -10 -15 -10 -27 0 -11 -6 -34 -14 -51 -8 -18 -26 -66 -41
-107 -14 -41 -35 -93 -46 -116 -27 -59 -25 -92 7 -100 29 -7 41 4 80 81 15 28
28 52 30 54 2 2 26 -7 54 -20 38 -18 50 -29 50 -46 0 -12 7 -28 15 -37 8 -8
15 -22 15 -31 0 -31 20 -55 46 -55 34 0 40 24 21 79 -27 81 -29 99 -9 97 28
-2 23 56 -6 69 -13 6 -25 21 -28 35 -3 14 -9 41 -14 60 -5 19 -12 60 -16 90
-9 73 -39 122 -58 91z m-11 -190 c-3 -5 -1 -12 5 -16 5 -3 10 -14 10 -25 0
-13 -5 -17 -20 -13 -11 3 -20 8 -20 12 1 20 14 51 22 51 5 0 7 -4 3 -9z"/>
<path d="M3854 4426 c-11 -8 -35 -45 -53 -83 -18 -37 -38 -77 -44 -88 -6 -11
-11 -30 -13 -42 -1 -11 -14 -44 -28 -73 -31 -62 -33 -96 -7 -110 25 -13 41
-13 41 0 0 26 43 52 87 53 l46 2 12 -52 c13 -55 33 -93 73 -133 24 -24 24 -24
38 -5 21 28 7 134 -47 360 -6 22 -14 62 -19 88 -13 72 -21 89 -35 84 -7 -3
-17 -1 -22 4 -5 5 -17 3 -29 -5z m16 -232 c0 -8 -6 -14 -14 -14 -9 0 -12 7 -9
20 6 22 23 18 23 -6z"/>
<path d="M4277 4402 c-17 -20 -102 -186 -112 -222 -4 -14 -23 -57 -42 -96 -32
-68 -33 -73 -19 -105 9 -19 15 -30 16 -25 0 6 5 5 12 -2 8 -8 20 3 48 46 l38
58 73 -1 74 -1 6 -36 c7 -44 44 -105 64 -105 9 0 18 10 21 22 6 23 -2 130 -10
143 -3 5 4 16 15 25 26 22 24 37 -4 37 -16 0 -28 9 -36 28 -23 50 -51 147 -51
178 0 34 -11 47 -52 63 -21 8 -29 6 -41 -7z m53 -243 c0 -12 -11 -18 -35 -21
-20 -2 -34 -2 -32 1 7 14 26 58 32 76 7 18 9 17 21 -10 7 -16 13 -37 14 -46z"/>
<path d="M4689 4337 c-26 -17 -50 -54 -106 -167 -73 -144 -82 -173 -63 -185 6
-4 8 -11 4 -16 -3 -6 2 -16 12 -24 16 -12 22 -6 61 54 24 36 43 69 43 73 0 8
21 14 76 23 l40 6 15 -48 c15 -48 35 -62 49 -33 4 8 12 24 17 35 19 37 -40
256 -77 288 -26 22 -30 22 -71 -6z m41 -143 c0 -8 -7 -14 -15 -14 -17 0 -18 2
-9 24 7 18 24 12 24 -10z"/>
</g>
</svg>
